<svg width="138" height="40" viewBox="0 0 138 40" fill="none" xmlns="http://www.w3.org/2000/svg">
<path d="M0 17.5585C0 11.4125 0 8.33944 1.1961 5.99195C2.24823 3.92705 3.92705 2.24823 5.99195 1.1961C8.33944 0 11.4125 0 17.5585 0H21.2605C27.4066 0 30.4796 0 32.8271 1.1961C34.892 2.24823 36.5708 3.92705 37.623 5.99195C38.8191 8.33944 38.8191 11.4125 38.8191 17.5585V22.4415C38.8191 28.5875 38.8191 31.6606 37.623 34.008C36.5708 36.073 34.892 37.7518 32.8271 38.8039C30.4796 40 27.4066 40 21.2605 40H17.5585C11.4125 40 8.33944 40 5.99195 38.8039C3.92705 37.7518 2.24823 36.073 1.1961 34.008C0 31.6606 0 28.5875 0 22.4415V17.5585Z" fill="#064AD3"/>
<mask id="mask0_231_323" style="mask-type:alpha" maskUnits="userSpaceOnUse" x="0" y="0" width="39" height="40">
<path d="M0 17.5585C0 11.4125 0 8.33944 1.1961 5.99195C2.24823 3.92705 3.92705 2.24823 5.99195 1.1961C8.33944 0 11.4125 0 17.5585 0H21.2605C27.4066 0 30.4796 0 32.8271 1.1961C34.892 2.24823 36.5708 3.92705 37.623 5.99195C38.8191 8.33944 38.8191 11.4125 38.8191 17.5585V22.4415C38.8191 28.5875 38.8191 31.6606 37.623 34.008C36.5708 36.073 34.892 37.7518 32.8271 38.8039C30.4796 40 27.4066 40 21.2605 40H17.5585C11.4125 40 8.33944 40 5.99195 38.8039C3.92705 37.7518 2.24823 36.073 1.1961 34.008C0 31.6606 0 28.5875 0 22.4415V17.5585Z" fill="#EDF0FF"/>
</mask>
<g mask="url(#mask0_231_323)">
<path fill-rule="evenodd" clip-rule="evenodd" d="M6.91789 0.000244141L6.91789 3.94231L-0.00390625 3.94231L-0.00390624 4.15689L6.91789 4.15689L6.91789 12.4096H-0.00341797L-0.00341796 12.6241H6.91789L6.91789 20.998H-0.00341797L-0.00341796 21.2126H6.91789L6.91789 29.4638H-0.00341797L-0.00341796 29.6784H6.91789V29.8162H7.13247V29.6784H15.1339L15.1339 38.0528H-0.00341797L-0.00341796 38.2674H15.1339V40.0015H15.3485V38.2674H23.4677V40.001H23.6823V38.2674L31.6852 38.2674V40.0015H31.8998V38.2674H38.8156V38.0528H31.8998L31.8998 29.6784H38.8156V29.4638H31.8998V21.2126H38.8156V20.998H31.8998V12.6241H38.8156V12.4096H31.8998L31.8998 4.15689H38.8152V3.94231L31.8998 3.94231V0.00153269L31.6852 0.00153269V3.94231L23.6823 3.94231V0.00104405L23.4677 0.00104405V3.94231L15.3485 3.94231V0.00153196L15.1339 0.00153196V3.94231L7.13247 3.94231L7.13247 0.000244141L6.91789 0.000244141ZM31.6852 4.15689L23.6823 4.15689L23.6823 12.4096L31.6852 12.4096V4.15689ZM31.6852 12.6241L23.6823 12.6241V20.998L31.6852 20.998L31.6852 12.6241ZM31.6852 21.2126H23.6823V29.4638L31.6852 29.4638V21.2126ZM31.6852 29.6784H23.6823L23.6823 38.0528H31.6852V29.6784ZM23.4677 29.6784V38.0528H15.3485L15.3485 29.6784H23.4677ZM23.4677 21.2126V29.4638H15.3485V21.2126H23.4677ZM23.4677 12.6241L23.4677 20.998H15.3485L15.3485 12.6241H23.4677ZM23.4677 4.15689V12.4096H15.3485L15.3485 4.15689L23.4677 4.15689ZM15.1339 4.15689L7.13247 4.15689L7.13247 12.4096H15.1339L15.1339 4.15689ZM15.1339 12.6241L7.13247 12.6241L7.13247 20.998H15.1339L15.1339 12.6241ZM15.1339 21.2126H7.13247L7.13247 29.4638H15.1339V21.2126Z" fill="url(#paint0_linear_231_323)" fill-opacity="0.4"/>
</g>
<path d="M13.9433 17.1313H17.3092C17.3877 17.1313 17.427 17.1313 17.4638 17.1404C17.4965 17.1484 17.5276 17.1615 17.5561 17.1794C17.5882 17.1996 17.6156 17.2277 17.6702 17.284L20.9736 20.688C21.093 20.811 21.1527 20.8724 21.1751 20.9429C21.1949 21.005 21.1949 21.0716 21.1751 21.1337C21.1527 21.2042 21.093 21.2656 20.9736 21.3886L11.9828 30.653L11.9828 30.653C11.9281 30.7093 11.9008 30.7375 11.8687 30.7576C11.8402 30.7755 11.809 30.7887 11.7764 30.7967C11.7395 30.8057 11.7003 30.8057 11.6218 30.8057H8.25602C8.17746 30.8057 8.13818 30.8057 8.10131 30.7967C8.06862 30.7886 8.03743 30.7754 8.00893 30.7575C7.97678 30.7373 7.94944 30.7091 7.89477 30.6527L4.59666 27.2489C4.47753 27.126 4.41796 27.0645 4.39557 26.9941C4.37586 26.9321 4.37588 26.8655 4.39561 26.8035C4.41804 26.733 4.47763 26.6716 4.59682 26.5487L13.5822 17.2842C13.6369 17.2278 13.6642 17.1996 13.6963 17.1794C13.7248 17.1616 13.756 17.1484 13.7887 17.1404C13.8255 17.1313 13.8648 17.1313 13.9433 17.1313Z" fill="white" stroke="white" stroke-width="0.165053"/>
<path d="M11.3292 30.2852L8.51894 27.3894C8.35185 27.2173 8.26831 27.1312 8.2369 27.0325C8.20925 26.9456 8.20925 26.8523 8.2369 26.7655C8.26831 26.6668 8.35185 26.5807 8.51894 26.4085L17.0166 17.6523C17.193 17.4706 17.2812 17.3797 17.3835 17.3458C17.4734 17.316 17.5706 17.316 17.6605 17.3458C17.7628 17.3797 17.851 17.4706 18.0274 17.6523L20.8376 20.5481C21.0047 20.7203 21.0883 20.8063 21.1197 20.905C21.1473 20.9919 21.1473 21.0852 21.1197 21.172C21.0883 21.2707 21.0047 21.3568 20.8376 21.529L12.3399 30.2852C12.1636 30.4669 12.0754 30.5578 11.9731 30.5917C11.8832 30.6215 11.786 30.6215 11.6961 30.5917C11.5938 30.5578 11.5056 30.4669 11.3292 30.2852Z" fill="#064AD3" stroke="white" stroke-width="0.165053"/>
<path d="M19.2115 18.8704L16.1085 15.668C15.9417 15.4958 15.8583 15.4097 15.8269 15.3111C15.7993 15.2243 15.7994 15.131 15.827 15.0442C15.8585 14.9456 15.9419 14.8596 16.1089 14.6875L16.1089 14.6875L21.1192 9.52481C21.1957 9.44597 21.2339 9.40654 21.2789 9.37833C21.3188 9.35331 21.3624 9.33486 21.4082 9.32366C21.4597 9.31104 21.5147 9.31104 21.6245 9.31104H24.8203C24.9302 9.31104 24.9852 9.31104 25.0367 9.32366C25.0824 9.33486 25.1261 9.35331 25.166 9.37833C25.2109 9.40654 25.2492 9.44596 25.3257 9.52481L25.3257 9.52481L34.1213 18.588C34.2884 18.7601 34.3719 18.8462 34.4033 18.9449C34.431 19.0318 34.431 19.1251 34.4033 19.2119C34.3719 19.3106 34.2884 19.3967 34.1213 19.5689L31.2816 22.4949C31.1145 22.6671 31.031 22.7532 30.9996 22.8519C30.9719 22.9387 30.9719 23.032 30.9996 23.1189C31.031 23.2176 31.1145 23.3037 31.2816 23.4758L31.2816 23.4758L34.1213 26.4019C34.2884 26.574 34.3719 26.6601 34.4033 26.7588C34.431 26.8457 34.431 26.939 34.4033 27.0258C34.3719 27.1245 34.2884 27.2106 34.1213 27.3828L31.0131 30.5855C30.9366 30.6644 30.8983 30.7038 30.8534 30.732C30.8135 30.757 30.7699 30.7755 30.7241 30.7867C30.6726 30.7993 30.6176 30.7993 30.5078 30.7993H27.3116C27.2019 30.7993 27.147 30.7993 27.0955 30.7867C27.0498 30.7755 27.0062 30.7571 26.9663 30.7321C26.9214 30.704 26.8831 30.6646 26.8067 30.5859L26.8066 30.5859L19.8961 23.4762C19.7286 23.3039 19.6449 23.2178 19.6134 23.119C19.5857 23.0321 19.5857 22.9387 19.6134 22.8517C19.6449 22.753 19.7286 22.6668 19.8961 22.4945L22.4638 19.8528C22.6987 19.6111 22.8162 19.4903 22.8233 19.3869C22.8294 19.2971 22.7925 19.2097 22.7238 19.1515C22.6447 19.0845 22.4762 19.0845 22.1392 19.0845H19.7172C19.6072 19.0845 19.5522 19.0845 19.5006 19.0719C19.4548 19.0607 19.4112 19.0422 19.3713 19.0171C19.3263 18.9888 19.288 18.9493 19.2115 18.8704Z" fill="white" stroke="white" stroke-width="0.165053" stroke-linejoin="round"/>
<path d="M19.8959 14.6874C19.7287 14.8595 19.645 14.9456 19.6136 15.0443C19.5859 15.1312 19.5859 15.2245 19.6135 15.3114C19.6449 15.4101 19.7285 15.4963 19.8956 15.6685L22.7065 18.5648C22.8826 18.7463 22.9707 18.8371 23.0728 18.871C23.1627 18.9008 23.2597 18.9009 23.3496 18.8712C23.4518 18.8374 23.54 18.7468 23.7164 18.5656L24.6133 17.6443C24.7897 17.4631 24.8779 17.3725 24.9801 17.3387C25.07 17.3091 25.1671 17.3091 25.2569 17.339C25.3591 17.3729 25.4471 17.4636 25.6233 17.6451L26.5385 18.5882C26.7056 18.7604 26.7892 18.8465 26.8206 18.9452C26.8482 19.032 26.8482 19.1253 26.8206 19.2122C26.7892 19.3109 26.7056 19.3969 26.5385 19.5691L23.6989 22.4952C23.5318 22.6673 23.4482 22.7534 23.4168 22.8521C23.3892 22.939 23.3892 23.0323 23.4168 23.1191C23.4482 23.2178 23.5318 23.3039 23.6989 23.4761L30.3007 30.2788C30.4771 30.4605 30.5653 30.5514 30.6676 30.5853C30.7575 30.6151 30.8547 30.6151 30.9446 30.5853C31.0469 30.5514 31.1351 30.4605 31.3115 30.2788L34.1217 27.383C34.2888 27.2109 34.3724 27.1248 34.4038 27.0261C34.4314 26.9392 34.4314 26.8459 34.4038 26.7591C34.3724 26.6604 34.2888 26.5743 34.1217 26.4021L31.2821 23.4761C31.115 23.3039 31.0314 23.2178 31 23.1191C30.9724 23.0323 30.9724 22.939 31 22.8521C31.0314 22.7534 31.115 22.6673 31.2821 22.4952L34.1217 19.5691C34.2888 19.3969 34.3724 19.3109 34.4038 19.2122C34.4314 19.1253 34.4314 19.032 34.4038 18.9452C34.3724 18.8465 34.2888 18.7604 34.1217 18.5882L25.6238 9.83175C25.4475 9.65009 25.3594 9.55927 25.2571 9.52535C25.1672 9.49552 25.0701 9.4955 24.9802 9.52528C24.8779 9.55914 24.7897 9.64992 24.6133 9.83149L19.8959 14.6874Z" fill="#064AD3" stroke="white" stroke-width="0.165053" stroke-linejoin="round"/>
<path d="M48.7556 28.2772V12.5752H54.9506C56.1364 12.5752 57.1484 12.7873 57.9867 13.2116C58.8301 13.6307 59.4715 14.2262 59.9111 14.998C60.3558 15.7647 60.5782 16.6668 60.5782 17.7044C60.5782 18.7471 60.3533 19.6442 59.9035 20.3956C59.4537 21.1418 58.802 21.7143 57.9484 22.113C57.0999 22.5116 56.0725 22.711 54.8662 22.711H50.7184V20.0429H54.3295C54.9633 20.0429 55.4898 19.956 55.9089 19.7822C56.3281 19.6084 56.6399 19.3477 56.8443 19.0002C57.0539 18.6526 57.1587 18.2207 57.1587 17.7044C57.1587 17.1831 57.0539 16.7435 56.8443 16.3857C56.6399 16.0279 56.3255 15.757 55.9013 15.573C55.4821 15.3839 54.9531 15.2893 54.3142 15.2893H52.0754V28.2772H48.7556ZM57.2353 21.1316L61.1378 28.2772H57.473L53.6548 21.1316H57.2353Z" fill="#222222"/>
<path d="M69.7672 23.263V16.5007H73.0334V28.2772H69.8976V26.1381H69.7749C69.5091 26.8282 69.067 27.3828 68.4485 27.8019C67.8351 28.221 67.0863 28.4306 66.2021 28.4306C65.4149 28.4306 64.7223 28.2517 64.1243 27.8939C63.5263 27.5361 63.0586 27.0275 62.7212 26.3682C62.389 25.7088 62.2203 24.9191 62.2152 23.999V16.5007H65.4814V23.4164C65.4865 24.1115 65.673 24.661 66.0411 25.0648C66.4091 25.4686 66.9023 25.6705 67.5208 25.6705C67.9144 25.6705 68.2824 25.581 68.6248 25.4021C68.9673 25.2181 69.2433 24.9472 69.4529 24.5894C69.6676 24.2316 69.7723 23.7895 69.7672 23.263Z" fill="#222222"/>
<path d="M74.9982 32.6934V16.5007H78.2183V18.4788H78.364C78.5071 18.1619 78.7141 17.8399 78.985 17.5128C79.2611 17.1805 79.6189 16.9045 80.0584 16.6847C80.5031 16.4598 81.0551 16.3474 81.7145 16.3474C82.5732 16.3474 83.3655 16.5723 84.0913 17.0221C84.8171 17.4668 85.3972 18.1389 85.8317 19.0385C86.2662 19.933 86.4834 21.0549 86.4834 22.4043C86.4834 23.7179 86.2713 24.8271 85.847 25.7318C85.4279 26.6314 84.8554 27.3138 84.1296 27.7789C83.4089 28.2389 82.6013 28.4689 81.7068 28.4689C81.073 28.4689 80.5338 28.3641 80.0891 28.1546C79.6495 27.945 79.2892 27.6818 79.008 27.3649C78.7269 27.0429 78.5122 26.7183 78.364 26.3912H78.2643V32.6934H74.9982ZM78.1953 22.389C78.1953 23.0892 78.2925 23.7 78.4867 24.2214C78.6809 24.7427 78.962 25.1491 79.3301 25.4404C79.6981 25.7267 80.1453 25.8698 80.6718 25.8698C81.2034 25.8698 81.6532 25.7241 82.0212 25.4328C82.3892 25.1363 82.6678 24.7274 82.8569 24.2061C83.0511 23.6796 83.1482 23.0739 83.1482 22.389C83.1482 21.7092 83.0537 21.1111 82.8646 20.5949C82.6754 20.0786 82.3969 19.6749 82.0289 19.3835C81.6608 19.0922 81.2085 18.9465 80.6718 18.9465C80.1402 18.9465 79.6904 19.087 79.3224 19.3682C78.9595 19.6493 78.6809 20.048 78.4867 20.5642C78.2925 21.0805 78.1953 21.6887 78.1953 22.389Z" fill="#222222"/>
<path d="M93.38 28.5073C92.1686 28.5073 91.1259 28.2619 90.2519 27.7712C89.383 27.2754 88.7134 26.5752 88.2431 25.6705C87.7729 24.7606 87.5378 23.6847 87.5378 22.4426C87.5378 21.2313 87.7729 20.1681 88.2431 19.2532C88.7134 18.3382 89.3753 17.6252 90.2289 17.1141C91.0876 16.6029 92.0945 16.3474 93.2497 16.3474C94.0266 16.3474 94.7499 16.4726 95.4194 16.7231C96.0941 16.9684 96.682 17.339 97.1829 17.8348C97.6889 18.3306 98.0825 18.9542 98.3636 19.7055C98.6447 20.4518 98.7853 21.3258 98.7853 22.3276V23.2247H88.8411V21.2006H95.7108C95.7108 20.7303 95.6086 20.3138 95.4041 19.9509C95.1997 19.588 94.916 19.3043 94.5531 19.0998C94.1953 18.8903 93.7787 18.7855 93.3034 18.7855C92.8076 18.7855 92.368 18.9005 91.9846 19.1305C91.6064 19.3554 91.3099 19.6595 91.0952 20.0429C90.8806 20.4211 90.7707 20.8428 90.7656 21.3079V23.2323C90.7656 23.815 90.8729 24.3185 91.0876 24.7427C91.3074 25.167 91.6166 25.4941 92.0153 25.7241C92.414 25.9541 92.8868 26.0691 93.4337 26.0691C93.7966 26.0691 94.1288 26.018 94.4304 25.9158C94.732 25.8136 94.9901 25.6602 95.2048 25.4558C95.4194 25.2513 95.583 25.0009 95.6955 24.7044L98.7163 24.9038C98.5629 25.6296 98.2486 26.2634 97.7732 26.8052C97.303 27.3419 96.6947 27.761 95.9485 28.0626C95.2073 28.359 94.3512 28.5073 93.38 28.5073Z" fill="#222222"/>
<path d="M105.636 28.5073C104.425 28.5073 103.382 28.2619 102.508 27.7712C101.639 27.2754 100.969 26.5752 100.499 25.6705C100.029 24.7606 99.7936 23.6847 99.7936 22.4426C99.7936 21.2313 100.029 20.1681 100.499 19.2532C100.969 18.3382 101.631 17.6252 102.485 17.1141C103.343 16.6029 104.35 16.3474 105.506 16.3474C106.282 16.3474 107.006 16.4726 107.675 16.7231C108.35 16.9684 108.938 17.339 109.439 17.8348C109.945 18.3306 110.338 18.9542 110.619 19.7055C110.901 20.4518 111.041 21.3258 111.041 22.3276V23.2247H101.097V21.2006H107.967C107.967 20.7303 107.864 20.3138 107.66 19.9509C107.456 19.588 107.172 19.3043 106.809 19.0998C106.451 18.8903 106.035 18.7855 105.559 18.7855C105.063 18.7855 104.624 18.9005 104.241 19.1305C103.862 19.3554 103.566 19.6595 103.351 20.0429C103.136 20.4211 103.027 20.8428 103.021 21.3079V23.2323C103.021 23.815 103.129 24.3185 103.343 24.7427C103.563 25.167 103.872 25.4941 104.271 25.7241C104.67 25.9541 105.143 26.0691 105.69 26.0691C106.052 26.0691 106.385 26.018 106.686 25.9158C106.988 25.8136 107.246 25.6602 107.461 25.4558C107.675 25.2513 107.839 25.0009 107.951 24.7044L110.972 24.9038C110.819 25.6296 110.504 26.2634 110.029 26.8052C109.559 27.3419 108.951 27.761 108.204 28.0626C107.463 28.359 106.607 28.5073 105.636 28.5073Z" fill="#222222"/>
<path d="M112.464 28.2772V26.3298L118.229 19.1918V19.1075H112.663V16.5007H122.162V18.6245L116.749 25.5861V25.6705H122.362V28.2772H112.464Z" fill="#222222"/>
<path d="M126.228 32.6934C125.814 32.6934 125.425 32.6602 125.063 32.5938C124.705 32.5324 124.408 32.4532 124.173 32.3561L124.909 29.918C125.293 30.0355 125.638 30.0994 125.944 30.1097C126.256 30.1199 126.524 30.0483 126.749 29.895C126.979 29.7416 127.166 29.481 127.309 29.1129L127.501 28.6146L123.276 16.5007H126.711L129.149 25.1491H129.272L131.733 16.5007H135.191L130.613 29.55C130.394 30.1838 130.095 30.7358 129.716 31.206C129.343 31.6814 128.87 32.0469 128.298 32.3024C127.726 32.5631 127.035 32.6934 126.228 32.6934Z" fill="#222222"/>
<defs>
<linearGradient id="paint0_linear_231_323" x1="23.4216" y1="-2.49256" x2="23.6585" y2="40.9569" gradientUnits="userSpaceOnUse">
<stop stop-color="#BECAFF" stop-opacity="0.53"/>
<stop offset="0.856525" stop-color="#244AED" stop-opacity="0"/>
</linearGradient>
</defs>
</svg>
