<svg width="174" height="52" viewBox="0 0 174 52" fill="none" xmlns="http://www.w3.org/2000/svg">
<g clip-path="url(#clip0_3766_49827)">
<path d="M24.9311 46.1686C24.0538 46.1686 23.2656 46.067 22.5536 45.8762C21.8417 45.6856 21.2187 45.4313 20.672 45.1261C20.138 44.8083 19.6931 44.4778 19.3243 44.109C18.9684 43.7403 18.6887 43.397 18.5234 43.0665H18.3454V45.6347H13.2854V36.7478H18.3454V38.604C18.3454 40.1678 18.8921 41.2739 19.9982 41.9223C21.1043 42.5707 22.6172 42.8886 24.537 42.8886C26.533 42.8886 28.0332 42.4817 28.9995 41.6807C29.9784 40.8798 30.4615 39.8246 30.4615 38.515C30.4615 37.8921 30.3853 37.3326 30.22 36.8749C30.0674 36.4173 29.7877 36.0104 29.419 35.6926C29.0376 35.3493 28.529 35.0696 27.8933 34.828C27.245 34.5738 26.4567 34.3576 25.4905 34.1542L23.5326 33.722C22.0451 33.4296 20.6975 33.0227 19.4515 32.5142C18.2183 32.0057 17.163 31.3445 16.2985 30.5309C15.4213 29.7171 14.7475 28.7382 14.2643 27.6067C13.794 26.4752 13.5523 25.1275 13.5523 23.5892C13.5523 22.2924 13.7812 21.0846 14.2516 20.004C14.7093 18.9106 15.3832 17.9697 16.2477 17.1815C17.1249 16.3933 18.2056 15.783 19.5023 15.3508C20.7991 14.9185 22.2612 14.6897 23.9267 14.6897C24.8294 14.6897 25.6304 14.7913 26.3423 14.9821C27.0543 15.1727 27.6773 15.4143 28.2112 15.7067C28.7579 15.9991 29.2029 16.3424 29.5461 16.7111C29.8894 17.0671 30.1564 17.423 30.3344 17.7409H30.4997V15.2236H35.5597V24.1104H30.4997V22.2034C30.4997 20.6777 29.9657 19.5844 28.8977 18.936C27.8171 18.2876 26.4186 17.9697 24.7023 17.9697C22.7316 17.9697 21.2823 18.3765 20.3668 19.203C19.4515 20.0166 18.9938 21.0084 18.9938 22.1653C18.9938 22.8264 19.0955 23.3858 19.2989 23.8435C19.5023 24.3139 19.8329 24.708 20.2906 25.064C20.7356 25.4072 21.3204 25.6996 22.0451 25.9412C22.7698 26.1955 23.6597 26.4371 24.7023 26.6532L26.533 27.0092C28.0459 27.3397 29.4063 27.7465 30.6141 28.2551C31.8219 28.7636 32.839 29.4121 33.6654 30.2003C34.4918 30.9758 35.1275 31.9039 35.5597 32.9592C35.992 34.0271 36.2081 35.2603 36.2081 36.6588C36.2081 38.0192 35.9538 39.2779 35.4325 40.4475C34.9113 41.6044 34.1612 42.6215 33.1822 43.4607C32.216 44.2998 31.0336 44.9609 29.6352 45.4439C28.2366 45.9271 26.6729 46.1686 24.9311 46.1686ZM39.6153 42.7614H42.2344V17.4358L39.6153 16.8763V14.3845L48.8582 12.5156V26.4243H49.1633C49.5701 25.2547 50.2821 24.2757 51.312 23.4748C52.3417 22.6738 53.7148 22.2797 55.4311 22.2797C58.2281 22.2797 60.1861 22.9789 61.343 24.3902C62.4873 25.8014 63.0594 27.9119 63.0594 30.7343V42.7614H65.6783V45.6347H54.0453V42.7614H56.4355V30.9504C56.4355 29.4121 56.1686 28.3187 55.6345 27.6576C55.0879 27.0092 54.1852 26.6786 52.9012 26.6786C52.418 26.6786 51.9222 26.7421 51.4518 26.882C50.9687 27.0092 50.5364 27.2126 50.1423 27.4923C49.7481 27.7593 49.4303 28.1153 49.2015 28.5348C48.9727 28.9544 48.8582 29.4756 48.8582 30.0859V42.7614H51.2483V45.6347H39.6153V42.7614ZM79.6253 46.1686C77.8199 46.1686 76.2307 45.8635 74.8449 45.266C73.4718 44.6684 72.3022 43.8421 71.3613 42.7868C70.4206 41.7188 69.6959 40.4603 69.2128 38.9982C68.717 37.5234 68.4627 35.9214 68.4627 34.1797C68.4627 32.3489 68.717 30.6961 69.2254 29.2087C69.734 27.7211 70.4587 26.4752 71.4122 25.4581C72.3531 24.441 73.4846 23.6655 74.8068 23.106C76.129 22.5593 77.6038 22.2797 79.2311 22.2797C80.8584 22.2797 82.3205 22.5212 83.63 23.0171C84.9396 23.5129 86.0456 24.2122 86.9611 25.1275C87.8768 26.0303 88.5883 27.149 89.0841 28.4458C89.5798 29.7426 89.8216 31.2047 89.8216 32.7939V34.2687H75.4806V36.0358C75.4806 37.9938 75.9892 39.4813 77.0062 40.4856C78.0233 41.4773 79.371 41.9731 81.0619 41.9731C82.6257 41.9731 83.8971 41.6172 84.8506 40.8925C85.8168 40.1805 86.4907 39.3033 86.8975 38.2735L89.3007 39.7102C89.0338 40.4348 88.6646 41.1849 88.1689 41.935C87.6731 42.6851 87.037 43.3844 86.2491 44.0073C85.4608 44.6303 84.52 45.1515 83.4139 45.5584C82.3079 45.9652 81.0492 46.1686 79.6253 46.1686ZM75.4806 31.5606H82.9817V30.9504C82.9817 28.8399 82.6511 27.3652 81.9773 26.5133C81.3035 25.6615 80.3881 25.2419 79.2311 25.2419C78.0742 25.2419 77.1588 25.6615 76.485 26.5133C75.8111 27.3652 75.4806 28.8399 75.4806 30.9504V31.5606Z" fill="#E5097F"/>
<path d="M106.35 42.6594V35.1329L105.853 35.5143L105.294 35.8576L104.684 36.2389L103.96 36.5822C103.323 36.8746 102.815 37.0399 102.446 37.0781L101.048 37.2561C98.7084 37.2561 96.8139 36.3788 95.3518 34.6243C93.9028 32.8826 93.1782 30.8357 93.1782 28.4837C93.1782 24.6949 94.7166 22.254 97.7932 21.1733C98.8228 20.8046 99.9417 20.6139 101.124 20.6139C101.836 20.6139 102.471 20.6902 103.056 20.8428C103.616 20.9826 104.226 21.2241 104.862 21.5674L105.51 21.9616L106.35 22.5083L103.641 25.3053L103.133 24.9111L102.751 24.6314L101.81 24.072L101.15 23.8558C100.73 23.8558 100.348 23.9703 100.005 24.1865C99.6618 24.4153 99.3064 24.7332 98.9754 25.14L98.3782 26.5893L98.1494 28.1531V28.9286C98.1494 29.8313 98.4796 30.7212 99.1539 31.6112C99.5222 32.1325 100.056 32.5521 100.742 32.8699C101.429 33.1877 102.128 33.3403 102.841 33.3403C103.209 33.3403 103.502 33.3022 103.731 33.2259L104.684 32.73L105.51 32.0562L106.35 31.0518V17.8296H50.8162L52.6214 14.0918H127.899V17.8296H112.045V23.0676L113.215 22.2412L114.397 21.5039L116.063 20.8428L117.856 20.6139C121.987 20.6139 124.047 23.3474 124.047 28.827V30.4416C123.971 30.8102 123.933 31.09 123.933 31.2807C123.933 31.6493 123.805 32.4249 123.551 33.62L123.436 34.1285L123.271 34.688L117.41 39.036L117.856 37.5231L118.135 36.2389L118.63 33.1241L118.859 30.3907L118.695 28.3693C118.428 26.9198 117.944 26.03 117.233 25.6993C116.825 25.4324 116.381 25.3053 115.897 25.3053C115.338 25.3053 114.664 25.6231 113.889 26.2588L112.884 27.314L112.045 28.5472V39.3157L106.35 42.6594Z" fill="#434242"/>
<path d="M109.949 11.9435L106.364 8.35824L109.975 4.74756L113.687 8.33281L109.949 11.9435Z" fill="#434242"/>
<path d="M120.22 49.9573C118.695 51.0888 116.94 51.6482 114.969 51.6482C114.002 51.6482 112.91 51.5465 111.689 51.3176C109.49 50.9489 107.227 50.1607 104.875 48.9783C103.908 48.5079 103.133 48.0248 102.535 47.5162L105.815 44.5666L107.456 45.7872L108.727 46.6263C109.667 47.2492 110.824 47.7833 112.197 48.2282C113.392 48.5715 114.499 48.7368 115.529 48.7368C116.316 48.7368 116.953 48.457 117.461 47.8977C117.74 47.5798 117.957 47.2238 118.11 46.817C118.173 46.6009 118.211 46.2576 118.211 45.7872L117.919 44.8973C117.702 44.3632 117.309 44.0073 116.749 43.8165L115.77 43.6767C115.262 43.6767 114.842 43.753 114.499 43.9055L112.719 44.7065L111.918 45.1261L110.786 45.7872V41.5662L111.549 41.2866L112.845 40.8543L114.957 40.3457L116.686 40.2059C117.309 40.1423 117.969 40.2694 118.695 40.5746C120.054 41.1722 121.135 42.1257 121.911 43.4352C122.229 44.0963 122.368 44.7828 122.33 45.5075C122.267 47.44 121.568 48.9274 120.22 49.9573Z" fill="#434242"/>
<path d="M145.203 24.8602C146.093 26.869 146.538 28.8905 146.538 30.9374C146.538 32.3613 146.335 33.6581 145.928 34.8532C145 37.5612 143.487 39.4047 141.402 40.371C140.334 40.854 139.177 41.0956 137.944 41.0956C134.893 41.0956 132.515 39.5191 130.799 36.3534C130.278 35.3872 129.782 34.1031 129.298 32.5012C129.07 31.8401 128.752 30.1619 128.345 27.4793L128.015 22.6862L133.367 21.4021C133.367 22.9659 133.469 24.5424 133.646 26.1444L134.041 29.488C134.334 31.9799 134.956 34.0141 135.884 35.5778C136.622 36.9128 137.525 37.5866 138.567 37.5866C139.978 37.5866 140.855 36.7856 141.186 35.1838L141.351 33.4547V32.2215C141.275 32.0054 141.199 31.7256 141.122 31.3951L140.627 29.2084L139.902 27.2631C139.711 26.8182 139.431 26.3478 139.063 25.8646L136.33 26.8182L137.728 22.5209L139.788 22.1268L141.301 21.7836L142.635 21.6183L144.199 21.5674L150.34 21.4021V17.8296H124.493V14.0918H164.071V17.8296H156.036V39.3157L150.34 42.6594V24.8602H145.203Z" fill="#434242"/>
<path fill-rule="evenodd" clip-rule="evenodd" d="M0.356445 13.6342L15.2441 0.844238L34.8104 2.40802L27.7925 8.3453L9.65015 14.2063L0.356445 13.6342Z" fill="#393D48"/>
<path d="M27.2062 6.41278L29.2785 13.1383C29.126 12.5154 25.1212 12.9222 20.3408 14.0664C15.7639 15.1725 11.3268 18.478 11.1615 19.1391L9.83932 14.7529L9.01294 12.3246C11.0344 9.85817 17.6963 5.15412 27.2062 6.41278Z" fill="url(#paint0_linear_3766_49827)"/>
<path fill-rule="evenodd" clip-rule="evenodd" d="M22.3008 5.47198L24.9452 13.2019L27.7041 13.4943L25.0342 5.26855L22.3008 5.47198Z" fill="#EBECEC" fill-opacity="0.188235"/>
<path fill-rule="evenodd" clip-rule="evenodd" d="M20.2524 5.62451L23.1512 13.7231L24.0666 13.4562L21.1043 5.68808L20.2524 5.62451Z" fill="#EBECEC" fill-opacity="0.188235"/>
<path d="M3.30481 12.4517L4.84316 16.8506L4.4236 16.9904L2.88525 12.6042L3.30481 12.4517Z" fill="#393D48"/>
<path fill-rule="evenodd" clip-rule="evenodd" d="M4.84278 16.7745C5.36404 16.7364 5.80902 17.1305 5.84716 17.6518C5.8853 18.1731 5.49118 18.6307 4.96992 18.6689C4.44866 18.6943 3.99097 18.3129 3.95282 17.7789C3.9274 17.2577 4.32152 16.8127 4.84278 16.7745Z" fill="#393D48"/>
<path fill-rule="evenodd" clip-rule="evenodd" d="M7.71621 22.1524L5.45318 22.9406L4.90649 17.7153L7.71621 22.1524Z" fill="#393D48"/>
<path fill-rule="evenodd" clip-rule="evenodd" d="M169.167 9.15907C167.832 9.26073 166.879 9.85829 166.255 10.5448C165.594 11.2567 165.073 12.2993 165.137 13.6851C165.2 14.9692 165.874 16.0244 166.509 16.5838C167.387 17.3594 168.404 17.7662 169.65 17.7153C170.756 17.6644 171.888 17.1051 172.561 16.3295C172.651 16.2405 172.727 16.1515 172.803 16.0498C173.426 15.2489 173.743 14.2572 173.68 13.1892C173.591 11.4221 172.434 10.0363 170.998 9.46413C170.476 9.24799 169.803 9.12093 169.167 9.15907ZM169.193 9.61675C167.984 9.70576 167.145 10.2397 166.599 10.8499C166.001 11.4984 165.531 12.4391 165.594 13.6597C165.696 15.6812 167.476 17.3975 169.637 17.2576C170.197 17.2195 170.705 17.0796 171.137 16.8508C173.019 15.8718 173.782 13.6088 172.828 11.7018C172.498 11.0788 172.014 10.5575 171.455 10.2016C171.265 10.0871 171.048 9.97269 170.819 9.88369C170.337 9.69302 169.777 9.57862 169.193 9.61675Z" fill="black"/>
<path fill-rule="evenodd" clip-rule="evenodd" d="M167.703 11.0625V15.5625H168.703V13.6625H169.393C169.683 13.9321 169.894 14.2327 170.153 14.5625C170.444 14.9333 170.653 15.3125 170.703 15.5625H171.703C171.503 15.0125 171.203 14.4779 170.899 14.0904C170.766 13.9211 170.62 13.7562 170.472 13.6007C170.622 13.552 170.777 13.4736 170.916 13.3621C171.191 13.1422 171.403 12.7931 171.403 12.3125C171.403 11.9146 171.239 11.5905 170.981 11.3721C170.731 11.1608 170.411 11.0625 170.106 11.0625H167.703ZM168.703 11.8625V12.8625H170.106C170.164 12.8625 170.3 12.8307 170.416 12.7379C170.516 12.6578 170.603 12.5319 170.603 12.3125C170.603 12.1504 170.543 12.0495 170.464 11.9829C170.377 11.9092 170.247 11.8625 170.106 11.8625H168.703Z" fill="black"/>
</g>
<defs>
<linearGradient id="paint0_linear_3766_49827" x1="11.6275" y1="16.3282" x2="26.6581" y2="9.01785" gradientUnits="userSpaceOnUse">
<stop stop-color="#393D48"/>
<stop offset="0.670588" stop-color="#535660"/>
<stop offset="1" stop-color="#393D48"/>
</linearGradient>
<clipPath id="clip0_3766_49827">
<rect width="173.333" height="52" fill="white" transform="translate(0.356445)"/>
</clipPath>
</defs>
</svg>
