<svg width="18" height="18" viewBox="0 0 18 18" fill="none" xmlns="http://www.w3.org/2000/svg">
<g clip-path="url(#clip0_1716_86)">
<path d="M12.75 15.75C11.5097 15.7489 10.2887 15.4424 9.195 14.8575L8.8575 14.67C6.52556 13.4162 4.61377 11.5045 3.36 9.17252L3.1725 8.83502C2.57237 7.73505 2.25535 6.50304 2.25 5.25002V4.74752C2.24968 4.34774 2.40897 3.96437 2.6925 3.68252L3.96 2.41502C4.08309 2.29097 4.25685 2.23118 4.43022 2.25321C4.60358 2.27525 4.75686 2.37662 4.845 2.52752L6.5325 5.42252C6.70315 5.71719 6.65387 6.08983 6.4125 6.33002L4.995 7.74752C4.87728 7.86394 4.84985 8.04379 4.9275 8.19002L5.19 8.68502C6.13278 10.4314 7.56695 11.8629 9.315 12.8025L9.81 13.0725C9.95623 13.1502 10.1361 13.1227 10.2525 13.005L11.67 11.5875C11.9102 11.3461 12.2828 11.2969 12.5775 11.4675L15.4725 13.155C15.6234 13.2432 15.7248 13.3964 15.7468 13.5698C15.7688 13.7432 15.7091 13.9169 15.585 14.04L14.3175 15.3075C14.0357 15.591 13.6523 15.7503 13.2525 15.75H12.75Z" fill="#B5B5B6"/>
</g>
<defs>
<clipPath id="clip0_1716_86">
<rect width="18" height="18" fill="white"/>
</clipPath>
</defs>
</svg>
