<svg width="18" height="18" viewBox="0 0 18 18" fill="none" xmlns="http://www.w3.org/2000/svg">
<g clip-path="url(#clip0_1716_82)">
<path d="M9 1.5C5.68629 1.5 3 4.18629 3 7.5C3 12.165 6.7875 12.1275 7.695 14.835L8.0775 15.99C8.18474 16.309 8.49138 16.5175 8.8275 16.5H9.2475C9.58361 16.5175 9.89025 16.309 9.9975 15.99L10.38 14.835C11.25 12.1275 15 12.165 15 7.5C15 4.18629 12.3137 1.5 9 1.5ZM9 9.75C7.75736 9.75 6.75 8.74264 6.75 7.5C6.75 6.25736 7.75736 5.25 9 5.25C10.2426 5.25 11.25 6.25736 11.25 7.5C11.25 8.09674 11.0129 8.66903 10.591 9.09099C10.169 9.51295 9.59674 9.75 9 9.75Z" fill="#B5B5B6"/>
</g>
<defs>
<clipPath id="clip0_1716_82">
<rect width="18" height="18" fill="white"/>
</clipPath>
</defs>
</svg>
